# xmcd CD database file
#
# Track frame offsets:
#	150
#	17369
#	35219
#	58668
#	78479
#	97846
#	114346
#	131573
#	144833
#	159014
#	173195
#	186455
#
# Disc length: 2713 seconds
#
# Revision: 0
# Processed by: cddbd v1.5.2PL0 Copyright (c) Steve Scherf et al.
# Submitted via: CDex 1.51
#
DISCID=910a970c
DTITLE=Koop - Waltz for Koop
DYEAR=1900
DGENRE=Jazz
TTITLE0=Baby
TTITLE1=Bright Nights
TTITLE2=In a Heartbeat
TTITLE3=Modal Mile
TTITLE4=Relaxin' at Club F****n'
TTITLE5=Soul for Sahib
TTITLE6=Summer Sun
TTITLE7=Tonight
TTITLE8=Waltz for Koop
TTITLE9=Waltz for Koop
TTITLE10=Tonight
TTITLE11=Baby
EXTD=
EXTT0=
EXTT1=
EXTT2=
EXTT3=
EXTT4=
EXTT5=
EXTT6=
EXTT7=
EXTT8=
EXTT9=
EXTT10=
EXTT11=
PLAYORDER=
